  <svg
    t="1730822213305"
    class="icon"
    viewBox="0 0 1024 1024"
    version="1.1"
    xmlns="http://www.w3.org/2000/svg"
    p-id="12500"
  >
    <path
      d="M514.4 927.4c-7.5 0-15-1.9-22-5.7l-109.7-61.3c-18-10-38.3-15.3-58.9-15.3H189c-69.8 0-126.6-56.8-126.6-126.6V225.6C62.4 155.8 119.2 99 189 99h202.3c26.1 0 51.3 7.8 72.7 22.5 20.6 14.2 25.8 42.3 11.7 62.9-14.2 20.6-42.3 25.8-62.9 11.7-6.3-4.3-13.7-6.6-21.4-6.6H189c-19.9 0-36.1 16.2-36.1 36.1v492.9c0 19.9 16.2 36.1 36.1 36.1h134.7c36 0 71.6 9.3 103 26.8l109.8 61.3c21.8 12.2 29.6 39.8 17.5 61.6-8.3 14.7-23.8 23.1-39.6 23.1z"
      p-id="12501"
    ></path>
    <path
      d="M515.7 927.4c-15.9 0-31.3-8.4-39.6-23.2-12.2-21.8-4.4-49.4 17.5-61.6l109.8-61.3c31.4-17.5 67-26.8 103-26.8h134.7c19.9 0 36.1-16.2 36.1-36.1V225.6c0-19.9-16.2-36.1-36.1-36.1H639.4c-20.6 0-37.3 16.7-37.3 37.3v434.9c0 25-20.3 45.3-45.3 45.3s-45.3-20.3-45.3-45.3V226.9c0-70.5 57.4-127.8 127.9-127.8h201.7c69.8 0 126.6 56.8 126.6 126.6v492.9c0 69.8-56.8 126.6-126.6 126.6H706.3c-20.6 0-40.9 5.3-58.9 15.3l-109.7 61.3c-7 3.8-14.5 5.6-22 5.6zM364.7 426.7h-112c-25 0-45.3-20.3-45.3-45.3 0-25 20.3-45.3 45.3-45.3h112c25 0 45.3 20.3 45.3 45.3-0.1 25.1-20.3 45.3-45.3 45.3zM364.7 632.5h-81.2c-25 0-45.3-20.3-45.3-45.3s20.3-45.3 45.3-45.3h81.2c25 0 45.3 20.3 45.3 45.3s-20.3 45.3-45.3 45.3z"
      p-id="12502"
    ></path>
  </svg>