  <svg
    t="1718121104542"
    class="icon"
    viewBox="0 0 1024 1024"
    version="1.1"
    xmlns="http://www.w3.org/2000/svg"
    p-id="9253"
  >
    <path
      d="M913.5 934.3H108.1c-24.7 0-44.7-20-44.7-44.7V207c0-24.7 20-44.7 44.7-44.7h805.4c24.7 0 44.7 20 44.7 44.7v682.6c0 24.7-20 44.7-44.7 44.7z m-760.7-89.5h715.9V251.7H152.8v593.1z"
      p-id="9254"
    ></path>
    <path
      d="M322.4 317.1c-24.7 0-44.7-20-44.7-44.7V141.6c0-24.7 20-44.7 44.7-44.7s44.7 20 44.7 44.7v130.7c0 24.7-20 44.8-44.7 44.8zM699.2 317.1c-24.7 0-44.7-20-44.7-44.7V141.6c0-24.7 20-44.7 44.7-44.7s44.7 20 44.7 44.7v130.7c0 24.7-20 44.8-44.7 44.8zM477.9 764.5H322.4c-24.7 0-44.7-20-44.7-44.7V569.4c0-24.7 20-44.7 44.7-44.7h110.8v-60.9H322.4c-24.7 0-44.7-20-44.7-44.7 0-24.7 20-44.7 44.7-44.7h155.5c24.7 0 44.7 20 44.7 44.7v150.4c0 24.7-20 44.7-44.7 44.7H367.1V675h110.8c24.7 0 44.7 20 44.7 44.7s-20 44.8-44.7 44.8zM699.2 764.5c-24.7 0-44.7-20-44.7-44.7v-256H621c-24.7 0-44.7-20-44.7-44.7 0-24.7 20-44.7 44.7-44.7h78.2c24.7 0 44.7 20 44.7 44.7v300.8c0 24.6-20 44.6-44.7 44.6z"
      p-id="9255"
    ></path>
  </svg>