  <svg
    t="1716443584676"
    class="icon"
    viewBox="0 0 1024 1024"
    version="1.1"
    xmlns="http://www.w3.org/2000/svg"
    p-id="7431"
  >
    <path
      d="M801.2 926.5c-21.4 0-42.8-5.7-62.3-17.1l-118.6-69.3c-10.5-6.2-23.6-6.2-34.1 0l-118.6 69.3c-38.6 22.6-84.9 22.8-123.7 0.5s-62-62.3-62-107V297.4c0-24.7 20-44.8 44.8-44.8 24.7 0 44.8 20 44.8 44.8v505.5c0 17.7 11.9 26.4 17 29.3 5.1 2.9 18.6 8.8 33.9-0.1L541 762.8c38.4-22.5 86.1-22.5 124.6 0l118.6 69.3c15.2 8.9 28.8 3.1 33.9 0.1 5.1-2.9 17-11.7 17-29.3V221.4c0-18.7-15.2-33.8-33.8-33.8H326.7c-24.7 0-44.8-20-44.8-44.8S302 98 326.7 98h474.5c68 0 123.4 55.4 123.4 123.4v581.5c0 44.7-23.2 84.8-62 107-19.3 11.1-40.4 16.6-61.4 16.6z"
      p-id="7432"
    ></path>
    <path
      d="M326.7 475h-179c-24.7 0-44.8-20-44.8-44.8V221.4c0-68 55.4-123.4 123.4-123.4h100.3c24.7 0 44.8 20 44.8 44.8s-20 44.8-44.8 44.8H226.3c-18.7 0-33.8 15.2-33.8 33.8v164.1h134.2c24.7 0 44.8 20 44.8 44.8 0 24.7-20.1 44.7-44.8 44.7zM736 475H467.7c-24.7 0-44.8-20-44.8-44.8 0-24.7 20-44.8 44.8-44.8H736c24.7 0 44.8 20 44.8 44.8 0 24.8-20 44.8-44.8 44.8zM603.2 626.3H467.7c-24.7 0-44.8-20-44.8-44.8s20-44.8 44.8-44.8h135.6c24.7 0 44.8 20 44.8 44.8s-20.1 44.8-44.9 44.8z"
      p-id="7433"
    ></path>
  </svg>