 <svg
    t="1746716854550"
    class="icon"
    viewBox="0 0 1024 1024"
    version="1.1"
    xmlns="http://www.w3.org/2000/svg"
    p-id="7275"
  >
    <path
      d="M514.7 955h-0.2c-119-0.1-230.9-46.5-315-130.7C115.3 740.1 69 628.2 69.1 509.2c0.1-119 46.5-230.9 130.7-315 84.2-84.1 196-130.4 314.9-130.4h0.2c245.7 0.1 445.5 200.1 445.4 445.8-0.1 245.7-200 445.4-445.6 445.4z m0-802.1c-95.2 0-184.6 37-251.9 104.3-67.4 67.3-104.5 156.8-104.5 252-0.1 95.2 37 184.8 104.3 252.1s156.8 104.5 252 104.6h0.2c196.5 0 356.4-159.8 356.5-356.3 0-196.6-159.8-356.6-356.4-356.7h-0.2z m401.1 356.7h0.2-0.2z"
      p-id="7276"
    ></path>
    <path
      d="M348.8 508.2c-24.6 0-44.6-20-44.6-44.6v-78c0-24.6 20-44.5 44.6-44.5s44.6 20 44.5 44.6v78c0.1 24.6-19.9 44.5-44.5 44.5zM676.7 508.4c-24.6 0-44.6-20-44.6-44.6v-78c0-24.6 20-44.5 44.6-44.5s44.6 20 44.5 44.6v78c0.1 24.6-19.8 44.5-44.5 44.5zM629.9 726.3c-11.7 0-23.5-4.6-32.2-13.8-17.8-18.6-46.6-40.7-83.1-40.8-36.5 0-65.3 22.1-83 40.7-17.1 17.8-45.2 18.4-63 1.4-17.8-17-18.4-45.2-1.4-63 42.7-44.6 93.7-68.2 147.4-68.2h0.1c53.8 0 104.8 23.7 147.5 68.3 17 17.8 16.4 46-1.4 63-8.8 8.3-19.8 12.4-30.9 12.4z"
      p-id="7277"
    ></path>
  </svg>