 <svg
    t="1746716747062"
    class="icon"
    viewBox="0 0 1024 1024"
    version="1.1"
    xmlns="http://www.w3.org/2000/svg"
    p-id="7106"
  >
    <path
      d="M511.7 959.6h-0.2c-119.6-0.1-232-46.7-316.5-131.3-84.5-84.6-131-197-130.9-316.6 0.1-119.6 46.7-232 131.3-316.5 84.5-84.5 196.9-131 316.4-131h0.2c246.9 0.1 447.6 201.1 447.4 447.9-0.2 246.8-201 447.5-447.7 447.5z m-0.1-805.8c-95.6 0-185.5 37.2-253.1 104.8-67.7 67.6-105 157.5-105 253.2-0.1 95.7 37.1 185.6 104.7 253.3s157.5 105 253.2 105h0.2c197.4 0 358-160.5 358.1-357.9 0.1-197.5-160.5-358.2-358-358.3 0.1-0.1 0-0.1-0.1-0.1z m403 358.3h0.2-0.2z"
      p-id="7107"
    ></path>
    <path
      d="M345 510.7c-24.7 0-44.8-20.1-44.8-44.8v-78.3c0-24.7 20-44.7 44.8-44.7 24.7 0 44.8 20.1 44.7 44.8V466c0 24.7-20 44.7-44.7 44.7zM674.4 510.9c-24.7 0-44.8-20.1-44.8-44.8v-78.3c0-24.7 20-44.7 44.8-44.7 24.7 0 44.8 20.1 44.7 44.8v78.3c0.1 24.6-19.9 44.7-44.7 44.7zM511.6 748s-0.1 0 0 0c-54.9 0-106.5-26-149.5-75-16.3-18.6-14.4-46.9 4.2-63.2 18.6-16.3 46.9-14.4 63.2 4.2 17.8 20.3 46.4 44.5 82.1 44.5 35.7 0 64.4-24.2 82.1-44.4 16.3-18.6 44.6-20.4 63.2-4.1s20.4 44.6 4.1 63.2c-43 48.9-94.7 74.8-149.4 74.8z"
      p-id="7108"
    ></path>
  </svg>