<svg
    t="1716447478750"
    class="icon"
    viewBox="0 0 1024 1024"
    version="1.1"
    xmlns="http://www.w3.org/2000/svg"
    p-id="7650"
  >
    <path
      d="M638.24 959.78c-20.29 0-40.18-7.11-56.23-20.57L453.84 831.47 316.06 941.39c-13.51 10.8-32.05 12.81-47.55 5.25-15.52-7.59-25.32-23.41-25.14-40.71l2.51-244.39L127.07 556.8c-21.69-18.21-33.16-46.92-29.91-76.1 3.26-29.21 20.79-54.65 46.89-68.12L800.74 74.06c31.13-16.05 67.38-12.25 94.53 9.84 27.17 22.12 38.21 56.84 28.81 90.59L722.76 895.7c-8.05 28.81-29.93 51.29-58.5 60.12-8.57 2.65-17.34 3.96-26.02 3.96zM454.58 728.83c10.25 0 20.48 3.5 28.81 10.49L637.33 868.7l198.79-712.13-648.47 334.27 132.81 117.07c9.77 8.59 15.3 21.03 15.17 34.04l-1.75 170.68 92.78-74.02a44.674 44.674 0 0 1 27.92-9.78z"
      p-id="7651"
    ></path>
    <path
      d="M460.42 594.64c-11.46 0-22.91-4.37-31.66-13.12-17.49-17.49-17.49-45.84 0-63.31l167.53-167.48c17.49-17.49 45.82-17.49 63.31 0s17.49 45.84 0 63.31L492.07 581.52c-8.74 8.75-20.2 13.12-31.65 13.12z"
      p-id="7652"
    ></path>
  </svg>